<svg xmlns="http://www.w3.org/2000/svg" viewBox="361.1143543499999 0 716.1186 675.59543532" id="svg1" version="1.1" style="max-height: 500px" width="716.1186" height="675.59543532">
  <defs id="defs1">
    <radialGradient id="radialGradient4" spreadMethod="pad" gradientTransform="matrix(1129.81,1129.81,1129.81,-1129.81,6554.23,5421.25)" gradientUnits="userSpaceOnUse" r="1" cy="0" cx="0" fy="-0.048277602" fx="-0.62863201">
      <stop id="stop3" offset="0" style="stop-opacity:1;stop-color:#5ca633"/>
      <stop id="stop4" offset="1" style="stop-opacity:1;stop-color:#50a536"/>
    </radialGradient>
    <clipPath id="clipPath4" clipPathUnits="userSpaceOnUse">
      <path id="path4" transform="translate(0,2.4999999e-5)" d="m 5391.04,5108.89 c 0,0 124.27,1770.54 2657.08,1685.98 49.96,-276.73 192.17,-2944.06 -2421.35,-2651.96 111.46,203.7 509.04,980.5 1595.44,1581.78 -316.01,-92.24 -1543.34,-603.84 -2201.85,-2264.2 97.37,530.39 256.23,2224.06 2290.68,2828.76 -476.59,-51.25 -1287.12,-204.13 -1920,-1180.36 z"/>
    </clipPath>
  </defs>
  
    
  
  <g id="g1">
    <g id="group-R5">
      <path transform="matrix(0.13333333,0,0,-0.13333333,0,962.38667)" style="fill:#f68712;fill-opacity:1;fill-rule:nonzero;stroke:none" d="m 4810.84,3178.83 c 0,607.32 163.99,1176.28 449.84,1665.3 -0.12,8.74 -0.33,17.45 -0.33,26.21 0,902.21 622.32,1658.93 1461.08,1864.68 -397.28,289.79 -882.29,466.53 -1407.78,482.63 92.08,-306.56 295.23,-1201.67 -139.3,-2074.88 C 4897.63,4474.02 4234,3647.26 4961.68,2186.76 c 0.54,-1.08 1.03,-2.12 1.56,-3.19 0.08,-0.01 0.16,-0.01 0.24,-0.02 -99.08,314.11 -152.64,648.42 -152.64,995.28" id="path2"/>
      <path clip-path="url(#clipPath4)" transform="matrix(0.13333333,0,0,-0.13333333,0,962.38667)" style="fill:url(#radialGradient4);fill-opacity:1;fill-rule:nonzero;stroke:none" d="m 5391.04,5108.89 c 0,0 124.27,1770.54 2657.08,1685.98 49.96,-276.73 192.17,-2944.06 -2421.35,-2651.96 111.46,203.7 509.04,980.5 1595.44,1581.78 -316.01,-92.24 -1543.34,-603.84 -2201.85,-2264.2 97.37,530.39 256.23,2224.06 2290.68,2828.76 -476.59,-51.25 -1287.12,-204.13 -1920,-1180.36" id="path3"/>
      <path transform="matrix(0.13333333,0,0,-0.13333333,0,962.38667)" style="fill:#569a8f;fill-opacity:1;fill-rule:nonzero;stroke:none" d="m 6111.25,3906.47 c -201.95,0 -396.79,30.36 -580.3,86.64 -222.35,-376.05 -350.11,-814.66 -350.11,-1283.18 0,-185.68 20.22,-366.62 58.26,-540.89 1392.61,2.25 2520.85,1131.82 2520.85,2524.95 0,32.07 -0.83,63.94 -2.02,95.73 -354.12,-532.35 -959.38,-883.25 -1646.68,-883.25" id="path5"/>
      <path transform="matrix(0.13333333,0,0,-0.13333333,0,962.38667)" style="fill:#75b4bd;fill-opacity:1;fill-rule:nonzero;stroke:none" d="m 4518.52,3049.82 c -1.63,9.45 -3.34,18.94 -4.86,28.33 -59.3,367.78 -25.54,686.16 50.43,968.67 0.09,0.33 0.19,0.66 0.28,1 -187.21,656.58 -791.56,1137.31 -1508.21,1137.31 -104,0 -205.6,-10.22 -303.94,-29.53 -27.65,-149.68 -42.27,-303.93 -42.27,-461.61 0,-983.8 562.74,-1835.98 1383.81,-2252.7 220.08,-111.7 458.66,-192.23 710.02,-235.48 -151.57,308.19 -240.94,587.97 -285.26,844.01" id="path6"/>
      <path transform="matrix(0.13333333,0,0,-0.13333333,0,962.38667)" style="fill:#1b2a4b;fill-opacity:1;fill-rule:nonzero;stroke:none" d="m 5164.96,7217.92 c -1159.17,-31.56 -2123.17,-844.3 -2384.77,-1930.8 115.5,27.11 235.9,41.5 359.67,41.5 693.69,0 1282.1,-450.46 1488.88,-1074.8 120.29,339.79 288.42,626.55 397,888.95 434.65,873.46 231.26,1768.84 139.22,2075.15" id="path7"/>
      <path transform="matrix(0.13333333,0,0,-0.13333333,0,962.38667)" style="fill:#1b2a4b;fill-opacity:1;fill-rule:nonzero;stroke:none" d="M 731.996,15 328.5,493.5 459,636 961.5,15 Z M 172.5,262.5 l -9,231 549,571.5 H 932.996 L 475.496,579.012 367.5,460.5 Z M 0,15 V 1065 H 195 V 15 H 0" id="path8"/>
      <path transform="matrix(0.13333333,0,0,-0.13333333,0,962.38667)" style="fill:#1b2a4b;fill-opacity:1;fill-rule:nonzero;stroke:none" d="m 1693.49,1168.5 c -25.01,0 -46.5,8.25 -64.5,24.75 -18,16.5 -27,38.26 -27,65.25 0,25.99 9,47.49 27,64.5 18,16.99 39.49,25.5 64.5,25.5 24.99,0 46.24,-8.51 63.75,-25.5 17.49,-17.01 26.25,-38.51 26.25,-64.5 0,-26.99 -8.76,-48.75 -26.25,-65.25 -17.51,-16.5 -38.76,-24.75 -63.75,-24.75 z m -291,0 c -25.01,0 -46.26,8.25 -63.75,24.75 -17.51,16.5 -26.25,38.26 -26.25,65.25 0,25.99 8.74,47.49 26.25,64.5 17.49,16.99 38.74,25.5 63.75,25.5 24.99,0 46.5,-8.51 64.5,-25.5 18,-17.01 27,-38.51 27,-64.5 0,-26.99 -9,-48.75 -27,-65.25 -18,-16.5 -39.51,-24.75 -64.5,-24.75 z M 1547.99,171 c 52.99,0 101.74,9 146.25,27 44.49,18 83.25,43.512 116.25,76.5 33,33 58.73,72.012 77.25,117.012 18.49,45 27.75,94.488 27.75,148.488 0,54.012 -9,103.5 -27,148.5 -18,45 -43.76,84 -77.25,117 -33.52,33 -72.51,58.512 -117,76.5 -44.51,18 -93.26,27.012 -146.25,27.012 -53.01,0 -102.26,-9.012 -147.75,-27.012 -45.51,-17.988 -84.75,-43.762 -117.75,-77.25 -33,-33.52 -59.01,-72.508 -78,-116.988 -19.01,-44.524 -28.5,-93.75 -28.5,-147.762 0,-53.02 9.49,-102 28.5,-147 18.99,-45 45,-84.262 78,-117.738 33,-33.52 72.24,-59.262 117.75,-77.262 45.49,-18 94.74,-27 147.75,-27 z m 0,-171 c -81,0 -156.26,13.5 -225.75,40.5 -69.52,27 -129.75,64.992 -180.75,114 -51,48.992 -90.51,106.238 -118.5,171.75 -28.01,65.492 -41.998,136.742 -41.998,213.75 0,78 13.988,149.75 41.998,215.262 27.99,65.468 67.5,122.476 118.5,170.988 51,48.5 111,86.25 180,113.25 69,27.01 144.49,40.5 226.5,40.5 81,0 156,-13.26 225,-39.74 69,-26.52 128.74,-64.022 179.25,-112.498 50.48,-48.52 89.74,-105.762 117.75,-171.762 27.98,-66 42,-138 42,-216 0,-78 -14.02,-149.762 -42,-215.25 C 2041.98,259.242 2002.72,201.98 1952.24,153 1901.73,104 1841.99,66.2305 1772.99,39.75 1703.99,13.2617 1628.99,0 1547.99,0" id="path9"/>
      <path transform="matrix(0.13333333,0,0,-0.13333333,0,962.38667)" style="fill:#1b2a4b;fill-opacity:1;fill-rule:nonzero;stroke:none" d="m 3005.98,15 -265.5,381 h 208.5 l 267,-381 z m -492,372 -85.5,94.512 h 313.5 c 85.99,0 150.75,18.476 194.26,55.488 43.49,36.988 65.24,88.5 65.24,154.512 0,65.988 -21.75,117.218 -65.24,153.75 C 2892.73,881.742 2827.97,900 2741.98,900 h -313.5 l 85.5,96 z m -195,-372 v 1050 h 432 c 93,0 172.74,-14.76 239.25,-44.25 66.49,-29.512 117.75,-72.25 153.75,-128.25 36.01,-56.012 54,-123 54,-200.988 0,-77.032 -17.99,-143.02 -54,-198.012 -36,-55 -87.26,-97.5 -153.75,-127.5 -66.51,-30 -146.25,-45 -239.25,-45 h -322.5 l 85.5,87 V 15 h -195" id="path10"/>
      <path transform="matrix(0.13333333,0,0,-0.13333333,0,962.38667)" style="fill:#1b2a4b;fill-opacity:1;fill-rule:nonzero;stroke:none" d="m 3610.47,387 -85.5,96 h 313.5 c 85.99,0 150.75,18.23 194.25,54.762 43.5,36.48 65.25,87.738 65.25,153.75 0,65.988 -21.75,117.218 -65.25,153.75 -43.5,36.48 -108.26,54.738 -194.25,54.738 h -313.5 l 85.5,96 z m -195,-372 v 1050 h 432 c 93,0 172.73,-14.76 239.25,-44.25 66.49,-29.512 117.75,-72.25 153.75,-128.25 36,-56.012 54,-123 54,-200.988 0,-77.032 -18,-143.262 -54,-198.75 -36,-55.512 -87.26,-98.52 -153.75,-129.012 C 4020.2,333.23 3940.47,318 3847.47,318 h -322.5 l 85.5,90 V 15 h -195" id="path11"/>
      <path transform="matrix(0.13333333,0,0,-0.13333333,0,962.38667)" style="fill:#1b2a4b;fill-opacity:1;fill-rule:nonzero;stroke:none" d="m 4669.47,628.5 h 522 V 468 h -522 z m 15,-448.5 h 592.5 V 15 h -787.5 v 1050 h 766.5 V 900 h -571.5 V 180" id="path12"/>
      <path transform="matrix(0.13333333,0,0,-0.13333333,0,962.38667)" style="fill:#1b2a4b;fill-opacity:1;fill-rule:nonzero;stroke:none" d="m 6181.47,15 -265.5,381 h 208.5 l 267,-381 z m -492,372 -85.5,94.512 h 313.51 c 85.98,0 150.74,18.476 194.24,55.488 43.5,36.988 65.25,88.5 65.25,154.512 0,65.988 -21.75,117.218 -65.25,153.75 -43.5,36.48 -108.26,54.738 -194.24,54.738 h -313.51 l 85.5,96 z m -195,-372 v 1050 h 432 c 93,0 172.73,-14.76 239.25,-44.25 66.49,-29.512 117.75,-72.25 153.75,-128.25 36,-56.012 54,-123 54,-200.988 0,-77.032 -18,-143.02 -54,-198.012 -36,-55 -87.26,-97.5 -153.75,-127.5 -66.52,-30 -146.25,-45 -239.25,-45 h -322.5 l 85.5,87 V 15 h -195" id="path13"/>
      <path transform="matrix(0.13333333,0,0,-0.13333333,0,962.38667)" style="fill:#57a634;fill-opacity:1;fill-rule:nonzero;stroke:none" d="m 7892.93,1065 h 193.5 V 15 h -193.5 z m 15,-600 h -573 v 166.512 h 573 z m -558,-450 h -195 v 1050 h 195 V 15" id="path14"/>
      <path transform="matrix(0.13333333,0,0,-0.13333333,0,962.38667)" style="fill:#57a634;fill-opacity:1;fill-rule:nonzero;stroke:none" d="m 8549.92,628.5 h 522 V 468 h -522 z m 15,-448.5 h 592.5 V 15 h -787.5 v 1050 h 766.5 V 900 h -571.5 V 180" id="path15"/>
      <path transform="matrix(0.13333333,0,0,-0.13333333,0,962.38667)" style="fill:#57a634;fill-opacity:1;fill-rule:nonzero;stroke:none" d="m 9374.92,15 v 1050 h 195 V 15 h -195" id="path16"/>
      <path transform="matrix(0.13333333,0,0,-0.13333333,0,962.38667)" style="fill:#57a634;fill-opacity:1;fill-rule:nonzero;stroke:none" d="m 9853.39,15 v 1050 h 195.01 V 180 h 549 V 15 h -744.01" id="path17"/>
      <path transform="matrix(0.13333333,0,0,-0.13333333,0,962.38667)" style="fill:#ffffff;fill-opacity:1;fill-rule:nonzero;stroke:none" d="m 4484.65,6876.13 c 18.51,12.5 57.11,-19.51 80.52,-22.15 25.74,-2.89 58.41,8.51 75.9,27.62 22.2,24.26 22.23,45.39 25.62,76.56 1.47,13.43 -6.37,25.36 3.73,36.12 15.32,16.32 53.83,-3.88 74.49,-7.15 51.44,-8.13 109.22,-1.29 159.7,9.58 27.08,5.84 128.13,43.08 142.9,41.31 4.02,-0.48 7.9,-1.05 11.19,-3.65 l 2.88,-5.88 c -13.95,-66.26 6.56,-126.27 23.32,-189.19 -3.7,-21.21 -75.51,-39.37 -95.07,-44.19 -40.05,-9.88 -111.92,-23.26 -151.79,-19.55 -58.55,5.45 -79.05,75.53 -154.73,67.83 -68.74,-7 -51.62,-114.24 -133.38,-86.82 -29.51,9.89 -99.22,96.63 -65.28,119.56" id="path18"/>
      <path transform="matrix(0.13333333,0,0,-0.13333333,0,962.38667)" style="fill:#ffffff;fill-opacity:1;fill-rule:nonzero;stroke:none" d="m 4591.21,6598.43 c 18.77,9.41 50.86,-25.09 72.35,-30.39 23.63,-5.81 55.46,0.85 74.07,16.54 23.62,19.92 26.21,39.6 33.15,68.24 2.99,12.33 -2.87,24.39 7.84,33.2 16.26,13.35 49.69,-10.13 68.54,-15.68 46.95,-13.81 101.62,-14.43 149.97,-10.41 25.94,2.16 124.61,24.62 138.15,21.18 3.69,-0.94 7.23,-1.94 9.98,-4.76 l 1.98,-5.83 c -21.02,-60.04 -9.18,-118.44 -1.18,-179.1 -6.02,-19.32 -75.13,-27.54 -93.94,-29.67 -38.51,-4.35 -107.1,-8.12 -143.8,0.17 -53.9,12.17 -64.51,79.96 -135.96,81.94 -64.9,1.81 -61.94,-100.19 -134.8,-64.74 -26.29,12.79 -80.74,102.05 -46.35,119.31" id="path19"/>
      <path transform="matrix(0.13333333,0,0,-0.13333333,0,962.38667)" style="fill:#ffffff;fill-opacity:1;fill-rule:nonzero;stroke:none" d="m 4592.46,6311.79 c 19.6,7.53 48.16,-29.95 69.03,-37.32 22.95,-8.1 55.27,-4.58 75.33,9.21 25.45,17.5 29.96,36.85 39.67,64.66 4.18,11.99 -0.47,24.56 11.06,32.27 17.48,11.7 48.45,-14.94 66.67,-22.31 45.37,-18.34 99.72,-24.31 148.23,-25.04 26.02,-0.39 126.42,12.31 139.56,7.55 3.58,-1.29 7.01,-2.63 9.47,-5.7 l 1.39,-6 c -26.79,-57.7 -20.73,-116.98 -18.7,-178.13 -7.89,-18.63 -77.47,-20.05 -96.39,-20.32 -38.76,-0.57 -107.38,2.4 -143.1,14.24 -52.45,17.39 -56.37,85.88 -127.28,94.86 -64.42,8.15 -71.45,-93.65 -140.49,-51.24 -24.92,15.31 -70.37,109.46 -34.45,123.27" id="path20"/>
      <path transform="matrix(0.13333333,0,0,-0.13333333,0,962.38667)" style="fill:#ffffff;fill-opacity:1;fill-rule:nonzero;stroke:none" d="m 4624.35,6024.83 c 18.42,5.08 40.96,-31.42 59.21,-39.95 20.07,-9.39 49.67,-9.07 69.07,1.64 24.62,13.59 30.43,30.71 41.7,55.05 4.85,10.48 1.76,22.29 12.89,28.25 16.88,9.04 42.57,-17.85 58.42,-26.15 39.47,-20.65 88.18,-30.9 132.06,-35.88 23.55,-2.67 115.63,-0.11 127.11,-5.58 3.13,-1.49 6.12,-3.01 8.08,-6.02 l 0.73,-5.55 c -29.42,-49.89 -29.2,-104.14 -32.81,-159.72 -8.8,-16.18 -71.97,-11.27 -89.13,-9.84 -35.17,2.94 -97.08,11.74 -128.38,25.65 -45.97,20.42 -43.43,82.83 -106.88,97.27 -57.63,13.12 -73.06,-78.48 -131.84,-33.91 -21.21,16.08 -54.01,105.43 -20.23,114.74" id="path21"/>
      <path transform="matrix(0.13333333,0,0,-0.13333333,0,962.38667)" style="fill:#ffffff;fill-opacity:1;fill-rule:nonzero;stroke:none" d="m 4557.8,5764.62 c 20.53,1.34 36.33,-42.05 53.71,-55.02 19.1,-14.27 50.37,-20.4 73.15,-13.34 28.92,8.96 38.77,25.74 55.96,48.94 7.4,9.99 6.72,23.11 19.75,26.96 19.76,5.85 40.98,-28.1 55.87,-40.3 37.11,-30.38 86.21,-51.8 131.38,-66.62 24.23,-7.95 121.85,-25.32 132.76,-33.6 2.97,-2.25 5.79,-4.5 7.2,-8.1 l -0.44,-6.01 c -41.88,-46.18 -53.48,-103.4 -69.41,-161.2 -12.8,-15.14 -78.31,3.82 -96.1,9.07 -36.42,10.77 -99.76,33.54 -129.72,55.02 -44,31.55 -27.71,96.78 -91.44,125.84 -57.88,26.4 -94.13,-66.79 -146.36,-7 -18.85,21.58 -33.94,122.91 3.69,125.36" id="path22"/>
      <path transform="matrix(0.13333333,0,0,-0.13333333,0,962.38667)" style="fill:#ffffff;fill-opacity:1;fill-rule:nonzero;stroke:none" d="m 4437.32,5479.13 c 20.57,-0.37 32.71,-44.91 48.96,-59.29 17.85,-15.8 48.5,-24.5 71.79,-19.35 29.56,6.53 40.77,22.43 59.83,44.13 8.2,9.34 8.61,22.47 21.91,25.23 20.18,4.19 38.51,-31.4 52.34,-44.79 34.46,-33.36 81.61,-58.78 125.4,-77.29 23.49,-9.94 119.34,-35.35 129.52,-44.5 2.78,-2.49 5.4,-4.97 6.5,-8.67 l -0.94,-5.95 c -45.56,-42.54 -61.87,-98.61 -82.53,-154.89 -14.02,-14.02 -77.73,10.3 -95.02,17.01 -35.4,13.75 -96.63,41.7 -124.71,65.59 -41.23,35.09 -19.59,98.74 -80.69,132.99 -55.49,31.1 -99.34,-58.76 -146.44,5.16 -16.99,23.07 -23.62,125.31 14.08,124.62" id="path23"/>
      <path transform="matrix(0.13333333,0,0,-0.13333333,0,962.38667)" style="fill:#ffffff;fill-opacity:1;fill-rule:nonzero;stroke:none" d="m 4263.35,5156.59 c 22.01,0.64 37.24,-46.39 55.34,-60.94 19.89,-16 53.11,-23.76 77.75,-17.08 31.29,8.47 42.47,26.05 61.75,50.2 8.31,10.41 8.08,24.47 22.17,28.1 21.37,5.49 42.76,-31.65 58.23,-45.27 38.53,-33.93 90.24,-58.74 138,-76.34 25.62,-9.43 129.4,-31.78 140.76,-41.05 3.09,-2.53 6.02,-5.04 7.39,-8.94 l -0.71,-6.42 c -46.58,-47.79 -61.2,-108.57 -80.46,-169.8 -14.28,-15.7 -83.64,7.1 -102.46,13.4 -38.56,12.92 -105.45,39.72 -136.68,63.86 -45.87,35.45 -25.93,104.61 -92.99,138.15 -60.92,30.47 -103.28,-67.84 -156.87,-1.86 -19.34,23.82 -31.58,132.81 8.78,133.99" id="path24"/>
      <path transform="matrix(0.13333333,0,0,-0.13333333,0,962.38667)" style="fill:#ffffff;fill-opacity:1;fill-rule:nonzero;stroke:none" d="m 3941.17,4058.63 c 21.36,5.33 46.3,-37.35 67.09,-47.69 22.86,-11.38 56.96,-11.85 79.61,-0.06 28.75,14.97 35.92,34.54 49.59,62.26 5.88,11.94 2.65,25.63 15.64,32.18 19.7,9.94 48.54,-21.76 66.57,-31.76 44.89,-24.9 100.71,-38.08 151.13,-45.05 27.05,-3.74 133.2,-3.36 146.28,-9.99 3.56,-1.81 6.96,-3.64 9.13,-7.16 l 0.69,-6.41 c -35.29,-56.66 -36.56,-119.15 -42.28,-183.08 -10.59,-18.4 -83.22,-10.97 -102.96,-8.83 -40.43,4.37 -111.5,16.24 -147.17,33.14 -52.39,24.82 -47.71,96.64 -120.4,115.06 -66.02,16.73 -86.37,-88.36 -152.83,-35.37 -23.99,19.12 -59.26,122.98 -20.09,132.76" id="path25"/>
      <path transform="matrix(0.13333333,0,0,-0.13333333,0,962.38667)" style="fill:#ffffff;fill-opacity:1;fill-rule:nonzero;stroke:none" d="m 3885.54,3618.55 c 20.2,8.76 51.8,-29.25 74,-36.05 24.41,-7.47 58.13,-2.35 78.54,13 25.91,19.48 29.77,39.95 38.71,69.53 3.85,12.75 -1.58,25.72 10.16,34.32 17.8,13.03 51.45,-13.52 70.87,-20.43 48.37,-17.21 105.6,-21.05 156.48,-19.66 27.29,0.74 131.95,18.5 145.93,14.11 3.81,-1.2 7.47,-2.45 10.18,-5.56 l 1.73,-6.22 c -25.52,-61.67 -16.53,-123.53 -11.7,-187.53 -7.43,-19.89 -80.3,-24.46 -100.12,-25.59 -40.6,-2.31 -112.66,-2.25 -150.61,8.58 -55.75,15.89 -62.9,87.51 -137.63,93.77 -67.87,5.69 -70.72,-101.32 -144.97,-59.94 -26.79,14.94 -78.61,111.61 -41.57,127.67" id="path26"/>
      <path transform="matrix(0.13333333,0,0,-0.13333333,0,962.38667)" style="fill:#ffffff;fill-opacity:1;fill-rule:nonzero;stroke:none" d="m 4685.47,4704.7 c -12.7,7.33 -118.72,12.76 -145.52,17.97 -49.96,9.72 -104.98,25.92 -148.44,53.24 -17.46,10.97 -44.52,44.21 -64.74,35.36 -6.58,-2.89 -9.3,-7.73 -11.16,-13.29 77.3,-87.55 144.97,-183.78 201.37,-287.06 7.95,-1.56 15.43,-2.91 22.04,-3.99 19.59,-3.21 91.71,-14.6 103.29,3.19 9.2,63.52 13.89,125.85 52.22,180.49 l -0.34,6.45 c -1.97,3.63 -5.27,5.64 -8.72,7.64" id="path27"/>
      <path transform="matrix(0.13333333,0,0,-0.13333333,0,962.38667)" style="fill:#ffffff;fill-opacity:1;fill-rule:nonzero;stroke:none" d="m 4156.58,4324.38 c 69.09,-29.13 53.68,-99.44 101.74,-131.84 32.73,-22.07 101.21,-44.48 140.53,-54.88 19.19,-5.07 89.88,-23.33 103.12,-6.73 4.84,19.8 9.23,39.53 14.34,58.86 -21.14,53.86 -45.17,106.28 -71.91,157.04 -10.19,2.06 -18.68,3.94 -23.92,5.5 -48.8,14.46 -102.01,35.87 -142.65,67.23 -16.32,12.6 -40.07,48.28 -61.04,41.41 -13.83,-4.53 -12.69,-18.55 -20.31,-29.47 -17.67,-25.36 -27.7,-43.62 -58.37,-54.1 -24.16,-8.26 -57.81,-2.67 -78.7,12.01 -19,13.35 -37.24,59.29 -59.17,57.22 -40.19,-3.78 -20.91,-111.76 -0.08,-134.26 57.75,-62.38 93.66,38.47 156.42,12.01" id="path28"/>
      <path transform="matrix(0.13333333,0,0,-0.13333333,0,962.38667)" style="fill:#ffffff;fill-opacity:1;fill-rule:nonzero;stroke:none" d="m 4153.35,3191.83 c 74.94,-2.54 85.64,-73.71 142.11,-86.82 38.45,-8.92 110.42,-5.4 150.86,-1.07 11.06,1.18 38.73,4.28 62.04,10.34 -10.71,73.31 -17.8,144.68 -21.52,214.14 -35.75,-6.02 -80.44,-14.97 -96.97,-16.25 -50.75,-3.91 -108.09,-2.92 -157.26,11.87 -19.74,5.93 -54.67,30.78 -71.8,16.87 -11.3,-9.17 -5.23,-21.85 -8.44,-34.78 -7.46,-29.99 -10.3,-50.63 -35.21,-71.37 -19.62,-16.34 -53.04,-23.14 -77.79,-16.89 -22.52,5.69 -55.97,42.09 -75.71,32.33 -36.19,-17.89 20.37,-111.86 47.88,-125.45 76.2,-37.64 73.74,69.38 141.81,67.08" id="path29"/>
      <path transform="matrix(0.13333333,0,0,-0.13333333,0,962.38667)" style="fill:#ffffff;fill-opacity:1;fill-rule:nonzero;stroke:none" d="m 4115.32,2759.86 c 70.31,-34.73 68.04,64 130.84,61.88 69.14,-2.34 79.02,-68.01 131.12,-80.1 35.47,-8.23 101.88,-4.98 139.18,-0.99 12.52,1.34 48.08,5.33 71.01,13.76 -18.99,65.01 -35.06,128.57 -48.51,190.78 -29.6,-5.25 -61.56,-11.41 -74.58,-12.42 -46.82,-3.61 -99.73,-2.69 -145.09,10.95 -18.21,5.47 -50.44,28.4 -66.24,15.57 -10.43,-8.46 -4.83,-20.17 -7.79,-32.09 -6.88,-27.67 -9.5,-46.71 -32.48,-65.85 -18.1,-15.08 -48.94,-21.35 -71.78,-15.58 -20.77,5.25 -51.63,38.83 -69.85,29.82 -33.39,-16.5 18.8,-103.2 44.17,-115.73" id="path30"/>
      <path transform="matrix(0.13333333,0,0,-0.13333333,0,962.38667)" style="fill:#ffffff;fill-opacity:1;fill-rule:nonzero;stroke:none" d="m 4308.24,2436.37 c 66.8,-30.34 61.68,61.92 120.47,61.83 64.72,-0.09 75.95,-61.2 125.03,-70.93 33.42,-6.62 95.41,-1.57 130.18,3.29 3.77,0.53 9.85,1.41 16.98,2.62 -24.68,59.83 -46.85,118.48 -66.89,176.09 -1.7,-0.26 -3.29,-0.49 -4.61,-0.64 -43.67,-4.79 -93.17,-5.53 -136,5.84 -17.2,4.57 -48.03,25.03 -62.42,12.56 -9.49,-8.23 -3.9,-19 -6.31,-30.24 -5.59,-26.08 -7.47,-43.97 -28.38,-62.56 -16.47,-14.65 -45.12,-21.44 -66.64,-16.74 -19.59,4.27 -49.46,34.74 -66.22,25.77 -30.73,-16.44 20.7,-95.94 44.81,-106.89" id="path31"/>
    </g>
  </g>
</svg>